<?xml version="1.0" encoding="utf-8"?>
<!-- Generator: Adobe Illustrator 15.1.0, SVG Export Plug-In . SVG Version: 6.00 Build 0)  -->
<!DOCTYPE svg PUBLIC "-//W3C//DTD SVG 1.1//EN" "http://www.w3.org/Graphics/SVG/1.1/DTD/svg11.dtd">
<svg version="1.1" id="Layer_1" xmlns="http://www.w3.org/2000/svg" xmlns:xlink="http://www.w3.org/1999/xlink" x="0px" y="0px"
	 width="595.28px" height="841.89px" viewBox="0 0 595.28 841.89" enable-background="new 0 0 595.28 841.89" xml:space="preserve">
<g>
	<g>
		<path fill-rule="evenodd" clip-rule="evenodd" d="M60.993-15.998C74.711-11.455,87.445-3.507,98.988,4
			c11.03,7.173,25.814,14.144,27.996,29.996c-7.704,6.219-23.721,10.381-34.995,15.998C70.791,60.555,39.001,63.992,0,63.992
			c-30.58,0-61.048-1.742-79.99-7.999c-6.87-2.269-13.631-6.468-23.997-10.998c-8.385-3.665-21.987-7.643-22.998-11.999
			C-129.659,21.463-106.36,8.896-98.988,4c12.752-8.468,23.086-14.565,36.996-18.998C-54.964-75.877,53.353-79.765,60.993-15.998z"
			/>
	</g>
</g>
</svg>
