<?xml version="1.0" encoding="utf-8"?>
<!-- Generator: Adobe Illustrator 15.1.0, SVG Export Plug-In . SVG Version: 6.00 Build 0)  -->
<!DOCTYPE svg PUBLIC "-//W3C//DTD SVG 1.1//EN" "http://www.w3.org/Graphics/SVG/1.1/DTD/svg11.dtd">
<svg version="1.1" id="Layer_1" xmlns="http://www.w3.org/2000/svg" xmlns:xlink="http://www.w3.org/1999/xlink" x="0px" y="0px"
	 width="595.28px" height="841.89px" viewBox="0 0 595.28 841.89" enable-background="new 0 0 595.28 841.89" xml:space="preserve">
<g>
	<g>
		<path fill-rule="evenodd" clip-rule="evenodd" d="M8.499-30.123c4.585,2.32,8.078,1.79,10.999,7
			c18.88-3.631,27.301,11.178,41.994,14.998c10.959,13.038,18.993,29,24.997,46.994c-7.114,10.62,4.469,28.797,3,39.995
			c-11.836,3.35-24.235,11.537-38.995,5.999c-4.38-5.76-5.255-24.936,3.999-25.996c-0.756-2.594-3.091-6.614-1-8.999
			c-0.271-2.062-4.428-0.238-3.999-3c-3.495-22.835-7.76-44.9-25.997-52.993c-1.86,11.138,1.195,27.192-9.999,28.997
			c-1.858,14.31,7.565,25.323,4,34.996c6.427,10.237,11.08,22.249,14.998,34.995c10.981,8.882,17.563,32.761,17.998,54.993
			c0.074,3.839-1.902,10.013-1,13.999c0.854,3.778,6.327,7.543,6.999,10.998c1.866,9.604-6.755,18.352-7.999,23.997
			c-11.388,1.811-23.795,6.123-36.995,3c-1.788-7.486-9.345-15.917-8.999-24.997c0.169-4.432,4.103-7.476,4.999-11.999
			c1.028-5.188-0.428-10.714,0-15.997c0.632-7.802,3.397-15.54,3-22.998c-0.302-5.659-4.176-11.366-4-16.997
			c0.293-9.366,0.73-22.684-3.999-32.996c-2.801,1.149-5.198,1.149-7.999,0c-7.128,10.743-5.179,22.614-6,33.996
			c-0.447,6.203-3.615,11.972-4,17.997c-0.376,5.889,2.38,13.089,3,19.998c0.529,5.891-1.045,11.428,0,15.998
			c0.914,3.995,4.693,7.627,5,11.998c0.708,10.091-7.087,18.278-8.999,25.997c-13.455,3.023-27.476-0.874-37.995-4
			c-4.029-8.234-12.718-26.076,0-30.996c-2.975-27.805,0.809-48.658,11.999-66.991c1.445-2.368,4.542-3.621,6-5.999
			c6.218-10.152,5.769-23.875,14.998-32.996c-3.188-12.771,6.688-20.459,4-35.996c-9.671-2.995-7.05-18.281-8.999-28.997
			c-7.26,1.739-10.812,7.186-15.998,10.999c-2.503,14.495-11.679,22.316-10.999,39.996c0.017,3.683-2.913,4.419-5,5.999
			c2.164,7.63,8.75,8.261,9.999,14.998c1.701,9.173-2.539,18.981-7.999,20.997c-9.347,3.45-20.049-8.174-30.996-6.999
			c-7.297-35.287,1.805-67.981,20.997-86.989c15.268-4.151,23.755-20.12,43.995-15.998c2.049-4.284,7.827-4.838,11.999-7
			c-8.126-3.206-12.565-10.098-20.998-12.998c-3.171-22.794-19.22-38.737-5.999-60.993c13.421-22.593,58.351-18.958,72.991,0
			c11.347,21.92-2.581,39.058-6,59.993C22.177-39.775,16.21-34.076,8.499-30.123z"/>
	</g>
</g>
</svg>
