<?xml version="1.0" encoding="utf-8"?>
<!-- Generator: Adobe Illustrator 15.1.0, SVG Export Plug-In . SVG Version: 6.00 Build 0)  -->
<!DOCTYPE svg PUBLIC "-//W3C//DTD SVG 1.1//EN" "http://www.w3.org/Graphics/SVG/1.1/DTD/svg11.dtd">
<svg version="1.1" id="Layer_1" xmlns="http://www.w3.org/2000/svg" xmlns:xlink="http://www.w3.org/1999/xlink" x="0px" y="0px"
	 width="595.28px" height="841.89px" viewBox="0 0 595.28 841.89" enable-background="new 0 0 595.28 841.89" xml:space="preserve">
<g>
	<path fill-rule="evenodd" clip-rule="evenodd" fill="#FFFFFF" d="M70.459-12.712c3.586,1.864,5.674,4.292,8.999,4
		c-1.183,1.817-5.214,0.786-6.999,2c1.689-2.529-0.213-4.432-2-2C67.465-9.37,71.416-10.85,70.459-12.712z"/>
	<path fill-rule="evenodd" clip-rule="evenodd" d="M-70.523,19.284c3.371-3.054,2.801,3.043,1,5
		C-73.156,23.646-67.203,19.609-70.523,19.284z"/>
	<path fill-rule="evenodd" clip-rule="evenodd" d="M-72.523,19.284c1.357,0.31,0.83,2.503,1,4c-1.904-1.874-2.512-0.109-5,0
		C-76.426,20.714-72.62,21.854-72.523,19.284z"/>
	<path fill-rule="evenodd" clip-rule="evenodd" fill="#FFFFFF" d="M117.454,40.282c0.409,2.409-1.826,2.173-1,5c-1,0-2,0-3,0
		c1.894-1.167,2.694-2.888-0.999-3C113.301,40.795,115.673,40.834,117.454,40.282z"/>
	<path fill-rule="evenodd" clip-rule="evenodd" fill="#FFFFFF" d="M-12.53,62.279c3.386,3.13-1.656,6.286-1,9.999
		C-16.623,69.442-11.787,66.08-12.53,62.279z"/>
	<path fill-rule="evenodd" clip-rule="evenodd" fill="#FFFFFF" d="M5.467,88.275c16.957-5.044,38.506-6.192,54.993-8.999
		C38.332,85.529,22.009,88.464,5.467,88.275z"/>
	<path fill-rule="evenodd" clip-rule="evenodd" fill="#FFFFFF" d="M37.463,88.275c-4.771-0.772-6.436,1.564-10.998,1
		C30.033,87.588,36.188,84.9,37.463,88.275z"/>
	<path fill-rule="evenodd" clip-rule="evenodd" d="M123.453,16.285c1.535,38.141-24.935,54.78-53.993,65.992
		c-41.697,16.088-104.877,18.721-147.981,0c-15.9-6.906-37.305-21.113-41.995-31.996c-4.264-9.896-1.454-24.361-3-34.996
		c6.877-11.89,23.739-15.326,25.997-28.996c9.917-9.081,22.121-15.874,36.995-19.998c15.393-46.399,100.173-50.214,116.986-1
		c18.5,3.83,33.213,11.448,44.994,21.997c-6.255,4.449,7.538,10.77,4.999,10.999c-0.027-0.973-1.224-0.776-1.999-1
		C109.854,2.067,115.792,7.161,123.453,16.285z M3.468-69.705c-5.167,2.775-9.033,5.316-14.999,5c1.575-1.486,1.114-4.468-2-4
		c0.207,2.873-0.253,5.079-2,5.999c-0.138-1.862-0.658-3.342-2-4c-0.057,0.61-0.149,1.184-1,1c-0.934,2,2.381,2.381-2,5.999
		c-0.319-1.158-3.095-4.709-4-2c3.305,3.104-2.078-0.534-1,3c0.016,1.651,2.773,0.56,3,2c-2.728-0.091-2.013,1.665-4,0
		c3.282,3.296,0.321,8.527-4,5.999c-1.235,3.235,3.235,0.764,2,4c-3.19-0.857-3.092,1.574-5,2c-2.561,8.866,1.391,13.791,3,18.998
		c0.547-1.453-1.168-5.168,1-5c0.7,3.078,0.7,1.921,0,5c4.024-0.379,2.455-0.642,6-2c0.003,1.003-0.81,1.19-1,2
		c3.187,0.854,3.795-0.871,5-2c0.738,1.595,4.894-0.228,4,3c-1.479-0.52-2.52-1.479-4-2c1.004,2.822,1.464,2.506,2,4
		c1.189-2.075,7.25-4.411,3-1c4.646-1.976,8.901,0.979,12.999-2c0.279,2.054,2.671,1.995,4,3c0.299-1.966-1.351-1.983-2-3
		c4.164,3.193,6.359-3.019,9.999,0c1.17-1.496,1.243-4.09,2.999-5c0.056,1.278,1.282,1.385,1,3c-0.677,3.74-3.322-0.74-3.999,3
		c6.027,1.361,3.958-5.374,5.999-7.999c1.874,1.904,0.109,2.512,0,4.999c1.181-1.599,4.95-4.649,5.999-5.999
		c2.59,1.726,3.142-1.47,2,3c3.641-1.835,5.972,0.222,8.999-1c1.313-12.113-4.977-15.583-6-23.997c-1.89-0.224-2.206,1.127-3.999,1
		c-0.387-9.401-5.278-3.098-6.999-10.999c-0.212,1.208-1.109,0.615-2,0c0.054,1.72-0.77,2.563-2,3
		c-0.505-2.494-1.891-4.108-2.999-5.999c-0.65,4.016-8.664,0.668-9.999,4C-0.465-67.638,2.523-67.649,3.468-69.705z M89.458-11.712
		c-0.815-4.092-4.128-4.638-6-4c1.087,0.24,2.401,1.646,1,2c-1.714,0.17-3.932-5.67-3.999-1
		C84.728-12.791,85.366-13.454,89.458-11.712z M50.462-3.713c-0.287-1.763,4.708-3.096,1.999-4c-3.299,2.412-3.505,3.97-2.999,6
		C43.607-3.02,36.1,2.098,31.464,5.286c-0.878-3.341-3.169-1.05-1,1c-1.986-0.013-1.271-2.729-3.999-2
		c-0.195,5.318,6.974,1.05,7.999,3c-2.867,3.324-7.048-0.182-8.999,3c0.555-0.003,1.135,0.81,0,1c-2.447-2.357,1.493-1.86,1-4.999
		c-4.208-1.792-6.194,0.541-9.999,1c1.634-0.728,4.35,1.987,2,2c-2.317-3.306-8.63-2.212-9.999,1c-0.043-1.376,0.471-2.195,1-3
		c-2.759,2.574-12.297-1.631-11.999,4c2.483-0.15,4.149,0.517,5,2c-4.707,0.249-7.518,0.156-10.999-1c1.987-3.14,4.73,0.275,5.999-4
		c-5.229,1.736-15.162-2.277-14.998,1c-6.132-3.51-10.284-3.498-19.998-4c1.226-3.77-4.362-1.605-6.999-4
		c-0.186,2.822,3.936,2.506,0,4c0.876-3.21-2.593-2.073-3-4c0.776-0.224,1.972-0.028,2-1c-3.446-0.097-6.248,3.458-4,6
		c2.505,1.323,2.427-4.656,4-1c-3.83,2.27-0.279,3.833,1,4c-4.229,11.893-15.461,21.701-16.998,32.996
		c-6.687,0.969-4.771,13.19-9.999,14.998c-0.299,1.966,1.35,1.983,2,3c-1,0-2,0-3,0c0.765,3.191,1.473,4.899-1,2
		c0.245,3.2,2.152,7.922-1,4c-1.301,1.332-0.615,3.018,1,4c0.016-1.651,2.773-0.56,3-2c-1.921-2.069,3.238-2.729,1-7c1,0,2,0,3,0
		c6.221-11.915,15.996-37.788,26.997-46.994c6.776-5.671,26.555-1.822,30.996,5c-1.182,25.132-0.005,56.181-1,62.992
		c2.425-2.53,8.676-8.13,4-12.999c1.376,0.043,2.195-0.471,3-1c1.705-17.571-1.857-37.151,4-51.994
		c6.806-3.69,19.352-5.286,28.996-3c12.197,13.96,17.914,39.025,27.997,49.994c-0.481-0.523,5.517,1.926,3.999,4
		c-0.224-1.891,1.127-2.206,1-4c-4.606-7.724-15.967-35.072-25.997-51.994c1.755-6.016,12.18-7.208,12.999-10.999
		c1.062,2.573,5.759,0.542,5.999-1c7.872,2.885,14.429,12.11,20.997,12.999c0.341-4.887-10.537-5.787-4.999-6.999
		c-3.523-0.334-5.445-5.823-7.999-4c-1.387-1.613-0.846-5.154-3-6c-0.395,1.72,1.484,2.563,0,3c-2.251-0.416,0.15-5.482-2.999-5
		c-0.24,1.086-1.646,2.4-2,1c2.306,0.306,1.11-2.889,2.999-3c0.24,1.086,1.646,2.401,2,1c-3.682-1.411,4.244-8.12,1-5.999
		C58.576-10.264,56.34-5.167,50.462-3.713z M-60.524-5.713c-1.084,1.662-2.086-5.179-5-4.999c0.171,2.828-0.86,6.859,2,6.999
		c0.956-1.862-2.995-3.342,0-4c-0.224,1.891,1.127,2.206,1,4C-74.997,3.796-85.135,12.243-95.52,24.284
		c12.377-8.121,26.741-32.351,43.995-19.998c-1.244-2.976,4.975-4.152,1-5.999c-0.711,3.532-7.133-0.957-7.999,1
		c1.903-1.177,2.315-2.51,0-4c-0.756,1.656-3.561,6.333-6,3C-61.582-0.865-58.027-4.42-60.524-5.713z M76.458,14.285
		c7.894,2.979,14.871,16.842,20.998,14.999c-4.421,0.203-4.23-6.05-7.999-5c1.577-4.577-4.15-1.849-4-5c1.122-0.102,1.557,1.454,2,0
		c-2.039-0.558-1.961-3.008-4-1C83.467,14.797,78.428,9.631,76.458,14.285z M70.459-8.712c1.787-2.432,3.689-0.529,2,2
		c1.785-1.214,5.816-0.183,6.999-2c-3.325,0.292-5.413-2.135-8.999-4C71.416-10.85,67.465-9.37,70.459-8.712z M-87.521,24.284
		c-0.41,1.705-1.29-0.21-3,0c-0.786,3.5,0.34,3.053-3,4c1.332,1.001,3.018,1.648,3.999,3c-3.735,1.069-2.85-2.483-5.999-2
		c-1.475,3.516-9.56,8.847-4,12.998c1.373-2.279-2.578-3.759,0-4c3.42-0.087,0.579,6.087,4,6c-1.856-4.269,4.728-5.165,2-6.999
		c-0.56,1.44-1.56,2.439-3,3c0.043-1.376-0.471-2.196-1-3c3.044,0.044,3.888-2.111,5.999-3c0.097,2.57,3.903,1.43,4,4
		c-2.279-0.279-3.759,0.241-4,2c1.966-0.299,1.983,1.35,3,2c-0.863-9.102,9.632-6.076,7.999-11.999c0.962,2.439-4.493,3.312-4,2
		c2.986-0.347,3.643-3.023,5-5c0.88,2.453,0.9,5.766,4,5.999c-0.363-1.969-1.503-7.302,2-7.999c0.957,1.862-2.994,3.341,0,4
		c0.977-1.023,1.977-2.023,3-3c-0.224,1.891,1.126,2.206,1,4c-1.496,0.17-3.69-0.357-4,1c1.987,0.013,1.271,2.728,4,2
		c0.553-1.78,0.514-4.152,2-4.999c0.39,1.427,1.2,1.687,0,3c2.438,0.962,3.312-4.493,2-4c-0.274,2.358-3.725-0.092-4-1
		c3.555,1.555,0.604-3.396,3-3c1.758-0.575,5.875,1.208,5.999-1c-0.91-2.195-7.103,2.952-5.999-3c3.679,2.854,5.271-2.463,1-3
		c3.766,0.516,4.554,1.264,6-2c-1.22-0.113-2.368-0.299-2-2c2.208,1.309,5.862,3.09,2,5c2.615,0.282,4.301-0.365,4-3
		c-1.95,0.473-5.113-2.691-3-3c1.042,2.74,3.887,1.43,4.999-1c-1.256-0.41-2.043-1.289-2-3c1.44,0.56,2.44,1.56,3,3
		c0.149,1.332-4.065,3.018-1,4c0.24-1.875,1.646,0.567,2-1c-3.522-0.793,3.028-4.7,0-5C-59.25-0.915-77.22,7.65-80.522,19.284
		c0.054-1.72-0.77-2.563-2-3C-83.104,21.152-89.82,21.907-87.521,24.284z M-90.521,13.285c2.142-0.698,4.815-9.813,3-7.999
		C-87.217,8.647-92.955,11.107-90.521,13.285z M62.46,40.282c-0.357-3.594-1.593-4.755-3-5c-0.864-7.631,7.759-11.822,11.999-9.999
		c-1.009-0.012-1.258-1.752,0-2c3.065,0.529,5.261,5.237,7.999,3c-1.299,1.329-1.318,3.721,1,4c0.17-1.496-0.357-3.69,1-4
		c-0.004,1.003,0.81,1.19,0.999,2c-4.053,1.351,0.783,12.788,2,5.999c-1.546,6.453-3.068,12.93-8.999,14.998
		c6.058-0.648,6.091,7.051,9.999,3c0.102,1.122-1.453,1.557,0,2c1.83-5.55-0.867-9.922,2-13.998c-0.649,4.524,0.674,4.536,2,5
		c-1.209,0.211-0.615,1.109,0,2c-2.635-0.301-3.282,1.385-3,4c1.376-0.043,2.195,0.471,3,1c0.224-1.891-1.127-2.206-1-4
		c0.578,0.878,5.391,3.169,2.999,1c-3.246-2.041,3.376-2.528,3-4.999c-1.307-2.645-5.293-1.056-5.999-2
		c-1.673-3.371,4.634-3.831,3.999-4.999c-3.141-1.664-4.086,3.718-4.999,1c1.445-1.554,2.103-3.896,2.999-5.999
		c-3.055-1.144-3.133-5.259-6.999-3c1.874-1.904,0.109-2.512,0-5c-2.479-1.298-4.852,2.231-4.999,0c1.182-0.485,2.267-1.066,3-2
		c-4.682-1.984-5.548-7.784-11.999-7.999c-1.844-11.889-22.522-11.222-27.996-3c1.452,1.522-1.256,7.132,2.999,7.999
		c0.598-1.78-2.931-4.152,0-5c0.218,3.658,1.374,3.836,0,7c4.293,1.107,6.931,7.449,6,9.999c3.843-0.965,8.387,2.003,4.999,6.999
		c-2.456-0.793,2.836-6.126-2-5.999C54.108,42.054,57.132,39.077,62.46,40.282z M66.46,46.281c-2.699-2.358-6.718,1.66-4,4
		c-0.45-1.633,5.45-1.633,4.999,0c-1.438,0.656-6.34,2.864-3.999,4c2.05-4.779,3.54,4.188,3.999,1c0.957-1.862-2.994-3.342,0-4
		c2.831-0.164-0.83,6.164,2,5.999c0.869-2.908,1.497-1.125,4-1c-1.484-2.932,1.131-3.714-2-5c-0.156,1.177,0.172,2.838-1,3
		c0.003-1.003-0.81-1.19-1-2c2.054-0.279,1.995-2.671,3-4c-4.496,1.056-2.899,2.963-4-1C65.694,47.405,65.027,49.189,66.46,46.281z
		 M74.458,54.28c1.004,0.003,1.19-0.81,2-1c2.039,0.294,1.961,2.705,4,3c-1.131-3.139,0.287-2.642-1-5
		C77.625,51.541,72.423,53.449,74.458,54.28z M-96.52,12.285c0.41-1.705,1.29,0.21,3,0c0.224-2.188,4.51-5.382,2-6.999
		c-0.211,1.208-1.11,0.615-2,0C-92.648,8.892-99.047,10.335-96.52,12.285z M-12.53,43.281c0.797-14.623,6.555-29.058-12.999-26.997
		c-1.743,0.184-1.235,2.626-3,1C-43.23,11.918-51.589,41.224-57.525,51.28c1.22,0.113,2.368,0.299,2,2c-1.278-0.055-1.385-1.282-3-1
		c0.664,5.33-0.424,8.908-3,10.999c2.242,0.424,3.188,2.146,5,3c-1.321,0.012-0.914,1.752-2,2c-0.386-1.158-4.857-1.158-2,0
		c3.011,2.893,4.138-1.738,6.999-2c-0.487,2.581,3.536,5.668,5,3c-1.862-0.137-3.342-0.658-4-2c2.212-1.44-1.259-2.44,1-3
		c1.851,1.926,1.832,0.79,1,4c4.176-1.162,4.9,0.117,7.999,2c-5.241,3.938-12.803-2.065-11.998,1c0.056-0.61,0.149-1.184,1-1
		c0.534,1.44-3.896,2.44-1,3c1.394-2.6,5.175,0.73,6.999,1c1.964-2.902,14.093-7.524,10.999-1c3.209,0.877,2.073-2.593,4-3
		c1.496,0.17,3.69-0.357,4,1c-3.483-1.071-4.874,5.019-4,5c2.083-3.288,4.217,1.688,5.999,2c0.276-1.752-2.815-4.989,0-6
		c-0.224,1.891,1.127,2.206,1,4c2.319-0.319,3.839,0.161,5,1c0.973-3.972-5.588-0.411-5-4c4.23,1.142,2.366,0.59,1-2
		c2.279,1.373,3.759-2.578,4,0c-0.055,1.278-1.282,1.385-1,3c0.667,0,1.333,0,2,0c0.056,0.61,0.149,1.184,1,1
		c-2.469-4.064,1.863-3.077,3-6c-3.141-0.504-4.086,2.357-5-1c2.76,2.853,2.281-1.957,4-3c0.095,1.571-0.134,3.467,2,3
		C-11.004,61.618-13.116,54.016-12.53,43.281z M-13.53,72.277c-0.656-3.712,4.386-6.869,1-9.999
		C-11.787,66.08-16.623,69.442-13.53,72.277z M39.463,36.282c0.106,0.207,1.377-1.051,1-2
		c-5.508-13.856-15.458-22.958-29.996-15.998c0.609,0.057,1.184,0.149,1,1c-1.769-1.856-2.92,0.435-5,1c0.145-1.182,1.78-2.267,0-3
		c-1.491,1.433-3.158,4.856-4.999,3c1.206,6.135-4.12,19.689,1,27.997c-1.023,0.977-2.023,1.977-3,3
		c2.1,5.327,4.664,7.428,5.999,14.998c3.851-0.836,5.753-0.735,6.999,3c-2.505,1.323-2.427-4.656-3.999-1
		c1.992,1.008,3.501,2.498,4.999,3.999c0.525-4.45,2.967-1.712,3-5.999c-0.003,1.003,0.81,1.19,1,2c0.286,1.763-4.708,3.096-2,3.999
		c2.11-0.889,1.736-4.263,4.999-3.999c-1.41,4.41,5.983,0.016,6,3c-1.009,0.012-1.258,1.752,0,2c0.314-1.352,1.423-1.91,0.999-4
		c-7.494,0.205-1.18-1.865-7.998-3c2.65-0.015,5.887,0.555,5.999-2c-1.635,0.728-4.35-1.987-2-2c3.264,1.446,2.517,2.233,2,6
		c3.803,1.47,0.196-4.47,3.999-3c0.729,2.728-1.986,2.013-2,4c1.862-0.956,3.342,2.995,4,0c2.592-0.346,2.47-1.699,6.999-4
		c-2.157,2.79,2.002,1.928,3,0c0,1,0,2,0,3c3.235,1.235,0.764-3.235,3.999-2c0.149,1.332-4.065,3.018-1,4
		c0.012-1.322,1.753-0.914,2-2c-1.75-0.239,1.5-3.718,2-5c-1.555,2.46,3.396,2.94,2.999,1c-2.502,0.169-3.13-1.536-3.999-3
		c1.72-0.394,2.563,1.484,3,0c-3.229-1.839-0.553-3.379-3-5.999c4.976,1.394-0.739-5.25-1-3
		C49.178,47.16,41.431,40.118,39.463,36.282z M-118.517,26.283c-0.133-3.216-3.077-6.627-1-8.999
		c-5.245-0.999-1.688,15.357,0,13.998c0.102,1.122-1.454,1.557,0,2c0.012-1.321,1.752-0.914,2-2c-1.556-0.261-0.693-2.193,0-3
		C-120.439,28.786-121.357,23.311-118.517,26.283z M117.454,27.283c-0.091-1.634,1.665-4.35,0-2c-2.786,3.454,2.824,8.369-1,11.999
		c-1.665-1.987,0.091-1.271,0-4c-2.539-0.445-3.98,5.225-2,6c0.658-2.995,2.138,0.956,4,0c0.485-4.67,1.683-7.003-1-9.999
		c1.376-0.043,2.195,0.471,3,1c-0.504-5.17,2.831-6.5,1.999-11.999C114.019,18.755,124.048,26.604,117.454,27.283z M-116.518,37.282
		c-0.869-1.464-1.497-3.169-4-3c-0.512,5.494,0.075,6.91,3,6.999c-2.461-1.554-2.94,3.396-1,3c0.485-1.182,1.066-2.267,2-3
		c0.473-3.139-2.691-2.642-3-4.999C-116.829,34.5-117.584,40.686-116.518,37.282z M-106.519,43.281c4.298-0.473,1.279,2.691,3,3
		c0.239-1.427,1.646-1.686,2-3c-6.46,1.933,2.21-6.183-3-3c0.61,0.057,1.184,0.149,1,1
		C-104.701,41.767-105.786,42.348-106.519,43.281z M112.455,42.281c3.693,0.112,2.893,1.833,0.999,3c1,0,2,0,3,0
		c-0.826-2.826,1.409-2.59,1-5C115.673,40.834,113.301,40.795,112.455,42.281z M-111.518,55.28c-1.46-0.873-3.872-0.794-3-4
		c3.765,1.234,6.146,3.853,8.999,5.999c-0.3-4.414-8.099-9.559-10.999-4.999C-115.096,52.953-113.43,58.396-111.518,55.28z
		 M70.459,75.277c6.16,1.549,8.104-6.489,9.999-1c2.396-0.015,7.05-2.842,4.999-4c-1.005,2.076-4.421,2.741-3.999-1
		c4.617,0.792,2.858-1.111,3.999-2c-0.715,2.715,4.715-0.715,4,2c-0.776,0.224-1.973,0.028-2,1c2.983-0.016,3.399-2.6,5.999-3
		c0.225-1.891-1.127-2.206-1-4c5.885-0.497,8.801-9.964,16.998-8.999c-2.557,3.795-11.634,6.338-10.999,9.999
		c3.058-4.29,13.325-6.653,11.999-11.999C97.335,55.681,83.144,66.047,70.459,75.277z M-106.519,61.279c0.243,1.408,4.977-0.928,4,4
		c3.951,2.626,12.817,3.408,7.999-2c-1.386,0.614-0.15,3.849-2,4c-0.898-1.768-2.414-2.919-3-5c1.44-0.534,2.44,3.896,3,1
		c-1.615-0.982-2.301-2.668-1-4c-3.656,0.851-5.357-4.607-7,0c1.78,0.553,4.152,0.514,5,2c-1.003-0.003-1.19,0.81-2,1
		C-103.462,60.595-108.464,60.07-106.519,61.279z M-90.521,72.277c-1.139-1.175,2.54-5.186,0-6.999
		C-91.678,67.23-93.15,75.096-90.521,72.277z M3.468,72.277c1.086,0.39,2.4,1.2,0.999,0c-0.428-2.761,3.729-0.938,4-3
		c-2.182-0.531-6.468-2.419-6.999,1c1.862,0.956,3.342-2.995,3.999,0C4.346,70.489,3.911,71.388,3.468,72.277z M-85.521,73.277
		c0.164,1.283,6.103,1.283,3,0c-3.544,0.211-1.976-4.69-6-4c0.547,1.453-1.168,5.168,1,5c0.485-1.182,1.066-2.267,2-3
		C-85.521,71.944-85.521,72.611-85.521,73.277z M-46.526,81.276c-6.806-1.218-24.637-3.448-21.997-2
		c21.686,5.408,37.959,8.53,55.993,9.999C-19.869,85.883-34.019,83.515-46.526,81.276z M60.46,79.277
		c-16.487,2.806-38.036,3.955-54.993,8.999C22.009,88.464,38.332,85.529,60.46,79.277z M26.465,89.275
		c4.562,0.564,6.227-1.772,10.998-1C36.188,84.9,30.033,87.588,26.465,89.275z M64.46,37.282c1.97-3.375,4.549-0.104,7.999-2
		C73.127,22.908,55.063,30.787,64.46,37.282z M77.458,41.281c-3.541-0.541-2.458,3.541-5.999,3c-3.532-0.467-5.474-2.526-7.999-4
		c4.183,8.877,13.583,1.853,12.998,5.999c5.194-4.196-1.55-3.126,4-5c0.546-4.546-0.515-7.485-3-8.999c0.556,0.003,1.135-0.81,0-1
		C76.51,34.485,78.698,35.718,77.458,41.281z"/>
	<path fill-rule="evenodd" clip-rule="evenodd" fill="#FFFFFF" d="M-0.532-64.705c1.335-3.332,9.349,0.017,9.999-4
		c1.108,1.891,2.494,3.505,2.999,5.999c1.23-0.437,2.054-1.279,2-3c0.891,0.615,1.788,1.208,2,0
		c1.721,7.901,6.612,1.598,6.999,10.999c1.793,0.127,2.109-1.224,3.999-1c1.023,8.414,7.313,11.884,6,23.997
		c-3.027,1.222-5.358-0.835-8.999,1c1.142-4.469,0.59-1.274-2-3c-1.049,1.35-4.818,4.4-5.999,5.999c0.109-2.487,1.874-3.095,0-4.999
		c-2.041,2.625,0.028,9.36-5.999,7.999c0.677-3.739,3.322,0.74,3.999-3c0.282-1.615-0.944-1.721-1-3
		c-1.756,0.91-1.829,3.503-2.999,5c-3.64-3.019-5.835,3.193-9.999,0c0.649,1.017,2.299,1.034,2,3c-1.329-1.004-3.721-0.946-4-3
		c-4.098,2.979-8.353,0.023-12.999,2c4.25-3.411-1.811-1.075-3,1c-0.535-1.494-0.996-1.178-2-4c1.479,0.52,2.52,1.479,4,2
		c0.895-3.228-3.261-1.405-4-3c-1.205,1.129-1.812,2.854-5,2c0.19-0.81,1.003-0.997,1-2c-3.544,1.358-1.976,1.621-6,2
		c0.7-3.078,0.7-1.922,0-5c-2.168-0.168-0.453,3.546-1,5c-1.609-5.208-5.561-10.132-3-18.998c1.907-0.426,1.809-2.856,5-2
		c1.235-3.235-3.235-0.764-2-4c4.32,2.528,7.281-2.703,4-5.999c1.987,1.665,1.271-0.091,4,0c-0.226-1.44-2.984-0.349-3-2
		c-1.078-3.533,4.305,0.104,1-3c0.905-2.71,3.681,0.842,4,2c4.381-3.618,1.066-3.999,2-5.999c0.851,0.184,0.943-0.39,1-1
		c1.342,0.658,1.862,2.137,2,4c1.746-0.92,2.207-3.126,2-5.999c3.114-0.468,3.574,2.514,2,4c5.966,0.317,9.832-2.225,14.999-5
		C2.523-67.649-0.465-67.638-0.532-64.705z"/>
	<path fill-rule="evenodd" clip-rule="evenodd" fill="#FFFFFF" d="M80.458-14.711c0.067-4.67,2.285,1.17,3.999,1
		c1.401-0.354,0.087-1.76-1-2c1.872-0.638,5.185-0.092,6,4C85.366-13.454,84.728-12.791,80.458-14.711z"/>
	<path fill-rule="evenodd" clip-rule="evenodd" fill="#FFFFFF" d="M62.46-13.711c3.244-2.121-4.682,4.588-1,5.999
		c-0.354,1.401-1.76,0.086-2-1c-1.889,0.111-0.693,3.306-2.999,3c0.354,1.401,1.76,0.086,2-1c3.149-0.483,0.748,4.584,2.999,5
		c1.484-0.437-0.395-1.28,0-3c2.154,0.845,1.613,4.386,3,6c2.554-1.824,4.476,3.666,7.999,4c-5.538,1.212,5.34,2.112,4.999,6.999
		C70.89,11.397,64.333,2.171,56.461-0.713c-0.24,1.542-4.937,3.573-5.999,1c-0.819,3.79-11.244,4.982-12.999,10.999
		c10.03,16.922,21.391,44.27,25.997,51.994c0.127,1.793-1.224,2.109-1,4c1.518-2.073-4.48-4.523-3.999-4
		c-10.083-10.968-15.8-36.033-27.997-49.994c-9.645-2.286-22.19-0.69-28.996,3c-5.857,14.842-2.295,34.423-4,51.994
		c-0.804,0.529-1.623,1.043-3,1c4.677,4.869-1.575,10.469-4,12.999c0.995-6.812-0.182-37.86,1-62.992
		c-4.441-6.821-24.22-10.67-30.996-5c-11.001,9.207-20.775,35.079-26.997,46.994c-1,0-2,0-3,0c2.239,4.271-2.921,4.931-1,7
		c-0.227,1.44-2.984,0.349-3,2c-1.615-0.982-2.301-2.667-1-4c3.151,3.923,1.244-0.8,1-4c2.473,2.9,1.765,1.191,1-2c1,0,2,0,3,0
		c-0.649-1.017-2.299-1.034-2-3c5.228-1.808,3.312-14.029,9.999-14.998c1.537-11.295,12.77-21.103,16.998-32.996
		c-1.279-0.167-4.83-1.729-1-4c-1.572-3.656-1.494,2.323-4,1c-2.248-2.542,0.554-6.096,4-6c-0.027,0.972-1.224,0.776-2,1
		c0.406,1.926,3.876,0.79,3,4c3.936-1.494-0.186-1.178,0-4c2.637,2.395,8.225,0.23,6.999,4c9.714,0.502,13.865,0.49,19.998,4
		c-0.164-3.277,9.77,0.736,14.998-1c-1.269,4.274-4.012,0.859-5.999,4c3.481,1.156,6.292,1.249,10.999,1
		c-0.851-1.483-2.517-2.15-5-2c-0.298-5.63,9.24-1.425,11.999-4c-0.529,0.804-1.043,1.624-1,3c1.369-3.212,7.682-4.306,9.999-1
		c2.35-0.013-0.366-2.728-2-2c3.805-0.459,5.791-2.792,9.999-1c0.493,3.139-3.447,2.642-1,4.999c1.135-0.19,0.555-1.003,0-1
		c1.951-3.182,6.132,0.325,8.999-3c-1.025-1.95-8.194,2.318-7.999-3c2.728-0.729,2.013,1.987,3.999,2c-2.169-2.05,0.122-4.341,1-1
		C36.1,2.098,43.607-3.02,49.462-1.713c-0.506-2.029-0.3-3.588,2.999-6c2.709,0.903-2.286,2.237-1.999,4
		C56.34-5.167,58.576-10.264,62.46-13.711z M35.463,4.286c2.772,2.31,5.886,0.403,4,1c-1.122-0.211-1.557-1.11-2-2
		C48.505,0.571,40.08-0.845,35.463,4.286z M-39.527,11.285c-0.022-2.355,1.722-2.944,1-5.999c-1.376,0.043-2.195-0.471-3-1
		c0.299,1.966-1.35,1.983-2,3c1.771,0.228,5.007-1.007,4,2C-40.536,9.297-40.785,11.038-39.527,11.285z"/>
	<path fill-rule="evenodd" clip-rule="evenodd" fill="#FFFFFF" d="M-64.524-1.713c2.439,3.333,5.243-1.344,6-3
		c2.315,1.49,1.903,2.823,0,4c0.866-1.956,7.287,2.533,7.999-1c3.975,1.847-2.244,3.023-1,5.999
		C-68.779-8.067-83.143,16.163-95.52,24.284C-85.135,12.243-74.997,3.796-62.524-3.713c0.127-1.793-1.224-2.109-1-4
		c-2.995,0.658,0.956,2.137,0,4c-2.86-0.14-1.829-4.171-2-6.999c2.913-0.18,3.915,6.661,5,4.999
		C-58.027-4.42-61.582-0.865-64.524-1.713z"/>
	<path fill-rule="evenodd" clip-rule="evenodd" fill="#FFFFFF" d="M83.458,18.284c2.039-2.008,1.961,0.442,4,1
		c-0.443,1.454-0.878-0.102-2,0c-0.15,3.15,5.577,0.422,4,5c3.769-1.05,3.578,5.203,7.999,5
		c-6.127,1.844-13.104-12.019-20.998-14.999C78.428,9.631,83.467,14.797,83.458,18.284z"/>
	<path fill-rule="evenodd" clip-rule="evenodd" d="M37.463,3.286c0.443,0.89,0.878,1.789,2,2c1.886-0.597-1.228,1.31-4-1
		C40.08-0.845,48.505,0.571,37.463,3.286z"/>
	<path fill-rule="evenodd" clip-rule="evenodd" fill="#FFFFFF" d="M-82.521,16.285c1.23,0.437,2.053,1.279,2,3
		C-77.22,7.65-59.25-0.915-51.525,8.286c3.028,0.299-3.522,4.206,0,5c-0.354,1.567-1.76-0.875-2,1c-3.065-0.981,1.149-2.667,1-4
		c-0.56-1.44-1.56-2.439-3-3c-0.044,1.71,0.743,2.59,2,3c-1.112,2.43-3.957,3.74-4.999,1c-2.114,0.309,1.05,3.473,3,3
		c0.301,2.635-1.385,3.282-4,3c3.862-1.91,0.208-3.691-2-5c-0.368,1.701,0.78,1.887,2,2c-1.446,3.264-2.234,2.516-6,2
		c4.272,0.536,2.679,5.854-1,3c-1.104,5.952,5.089,0.805,5.999,3c-0.125,2.208-4.241,0.425-5.999,1c-2.396-0.396,0.555,4.554-3,3
		c0.275,0.908,3.725,3.358,4,1c1.312-0.493,0.439,4.962-2,4c1.2-1.313,0.39-1.573,0-3c-1.486,0.847-1.447,3.219-2,4.999
		c-2.728,0.729-2.013-1.986-4-2c0.31-1.357,2.503-0.83,4-1c0.127-1.793-1.224-2.109-1-4c-1.023,0.977-2.023,1.977-3,3
		c-2.994-0.658,0.957-2.138,0-4c-3.502,0.696-2.362,6.029-2,7.999c-3.1-0.233-3.12-3.546-4-5.999c-1.356,1.977-2.013,4.653-5,5
		c-0.493,1.312,4.962,0.439,4-2c1.633,5.922-8.862,2.897-7.999,11.999c-1.017-0.649-1.034-2.299-3-2c0.241-1.759,1.72-2.279,4-2
		c-0.097-2.57-3.903-1.43-4-4c-2.111,0.889-2.955,3.044-5.999,3c0.529,0.804,1.043,1.623,1,3c1.44-0.56,2.44-1.56,3-3
		c2.728,1.834-3.856,2.73-2,6.999c-3.42,0.087-0.579-6.087-4-6c-2.578,0.241,1.373,1.72,0,4c-5.56-4.151,2.525-9.482,4-12.998
		c3.149-0.483,2.264,3.068,5.999,2c-0.981-1.351-2.667-1.999-3.999-3c3.339-0.946,2.214-0.499,3-4c1.71-0.21,2.59,1.705,3,0
		C-89.82,21.907-83.104,21.152-82.521,16.285z M-69.523,24.284c1.802-1.957,2.372-8.054-1-5
		C-67.203,19.609-73.156,23.646-69.523,24.284z M-76.522,23.284c2.487-0.109,3.095-1.874,5,0c-0.17-1.496,0.357-3.69-1-4
		C-72.62,21.854-76.426,20.714-76.522,23.284z"/>
	<path fill-rule="evenodd" clip-rule="evenodd" fill="#FFFFFF" d="M-87.521,5.286c1.815-1.814-0.857,7.301-3,7.999
		C-92.955,11.107-87.217,8.647-87.521,5.286z"/>
	<path fill-rule="evenodd" clip-rule="evenodd" d="M-39.527,9.286c1.007-3.007-2.228-1.772-4-2c0.649-1.017,2.299-1.034,2-3
		c0.804,0.529,1.623,1.043,3,1c0.723,3.055-1.022,3.644-1,5.999C-40.785,11.038-40.536,9.297-39.527,9.286z"/>
	<path fill-rule="evenodd" clip-rule="evenodd" fill="#FFFFFF" d="M53.461,32.283c4.836-0.127-0.456,5.206,2,5.999
		c3.388-4.996-1.156-7.964-4.999-6.999c0.931-2.55-1.707-8.891-6-9.999c1.374-3.164,0.218-3.342,0-7c-2.931,0.847,0.598,3.219,0,5
		c-4.255-0.867-1.547-6.477-2.999-7.999c5.474-8.222,26.152-8.889,27.996,3c6.451,0.215,7.317,6.015,11.999,7.999
		c-0.733,0.934-1.818,1.515-3,2c0.147,2.231,2.52-1.298,4.999,0c0.109,2.487,1.874,3.095,0,5c3.866-2.259,3.944,1.856,6.999,3
		c-0.896,2.103-1.554,4.445-2.999,5.999c0.913,2.719,1.858-2.664,4.999-1c0.635,1.168-5.672,1.628-3.999,4.999
		c0.706,0.944,4.692-0.645,5.999,2c0.376,2.471-6.246,2.958-3,4.999c2.392,2.169-2.421-0.122-2.999-1c-0.127,1.793,1.224,2.109,1,4
		c-0.805-0.529-1.624-1.043-3-1c-0.282-2.615,0.365-4.301,3-4c-0.615-0.89-1.209-1.789,0-2c-1.326-0.464-2.649-0.476-2-5
		c-2.867,4.076-0.17,8.448-2,13.998c-1.453-0.443,0.102-0.878,0-2c-3.908,4.051-3.941-3.648-9.999-3
		c5.931-2.068,7.453-8.545,8.999-14.998c-1.217,6.789-6.053-4.648-2-5.999c-0.189-0.81-1.003-0.997-0.999-2
		c-1.357,0.31-0.83,2.503-1,4c-2.318-0.279-2.299-2.67-1-4c-2.738,2.238-4.934-2.47-7.999-3c-1.258,0.248-1.009,1.988,0,2
		c-4.24-1.824-12.863,2.368-11.999,9.999c1.407,0.244,2.643,1.405,3,5C57.132,39.077,54.108,42.054,53.461,32.283z M83.458,52.28
		c-0.224-1.891,1.127-2.206,1-4c-1.183-1.272-3.777-0.424-4.999,1c1.329,2.449,3.721-1.099,3.999,1
		C82.45,50.292,82.201,52.033,83.458,52.28z M63.46,24.284c2.457-2.318,7.85,0.375,3-1c-2.273-0.644-2.744,0.393-6-2
		c0.355,4.541-7.772,8.349-1.999,11.998C57.571,28.056,61.619,26.021,63.46,24.284z"/>
	<path fill-rule="evenodd" clip-rule="evenodd" fill="#FFFFFF" d="M68.459,47.281c1.101,3.963-0.496,2.056,4,1
		c-1.005,1.329-0.946,3.72-3,4c0.19,0.81,1.003,0.997,1,2c1.172-0.161,0.844-1.823,1-3c3.131,1.286,0.516,2.067,2,5
		c-2.503-0.125-3.131-1.909-4,1c-2.83,0.165,0.831-6.163-2-5.999c-2.994,0.658,0.957,2.137,0,4c-0.459,3.188-1.949-5.779-3.999-1
		c-2.341-1.135,2.561-3.344,3.999-4c0.451-1.633-5.449-1.633-4.999,0c-2.718-2.34,1.301-6.358,4-4
		C65.027,49.189,65.694,47.405,68.459,47.281z"/>
	<path fill-rule="evenodd" clip-rule="evenodd" fill="#FFFFFF" d="M79.458,51.28c1.287,2.358-0.131,1.86,1,5
		c-2.039-0.294-1.961-2.706-4-3c-0.81,0.19-0.996,1.003-2,1C72.423,53.449,77.625,51.541,79.458,51.28z"/>
	<path fill-rule="evenodd" clip-rule="evenodd" d="M83.458,50.28c-0.278-2.099-2.67,1.449-3.999-1c1.222-1.423,3.816-2.272,4.999-1
		c0.127,1.793-1.224,2.109-1,4C82.201,52.033,82.45,50.292,83.458,50.28z"/>
	<path fill-rule="evenodd" clip-rule="evenodd" d="M58.461,33.282c-5.773-3.649,2.354-7.457,1.999-11.998
		c3.256,2.392,3.727,1.355,6,2c4.85,1.375-0.543-1.318-3,1C61.619,26.021,57.571,28.056,58.461,33.282z"/>
	<path fill-rule="evenodd" clip-rule="evenodd" fill="#FFFFFF" d="M-93.52,5.286c0.89,0.615,1.788,1.208,2,0
		c2.51,1.617-1.775,4.812-2,6.999c-1.71,0.21-2.59-1.705-3,0C-99.047,10.335-92.648,8.892-93.52,5.286z"/>
	<path fill-rule="evenodd" clip-rule="evenodd" fill="#FFFFFF" d="M-14.53,68.278c-2.133,0.467-1.904-1.429-2-3
		c-1.718,1.043-1.239,5.853-4,3c0.914,3.356,1.859,0.495,5,1c-1.137,2.922-5.469,1.935-3,6c-0.85,0.184-0.943-0.39-1-1
		c-0.667,0-1.333,0-2,0c-0.282-1.615,0.945-1.721,1-3c-0.241-2.578-1.72,1.373-4,0c1.366,2.589,3.23,3.142-1,2
		c-0.588,3.588,5.972,0.027,5,4c-1.161-0.839-2.681-1.319-5-1c0.127-1.794-1.224-2.109-1-4c-2.815,1.011,0.276,4.247,0,6
		c-1.782-0.312-3.917-5.288-5.999-2c-0.875,0.019,0.516-6.071,4-5c-0.31-1.357-2.503-0.83-4-1c-1.927,0.407-0.79,3.876-4,3
		c3.094-6.524-9.034-1.902-10.999,1c-1.824-0.27-5.605-3.6-6.999-1c-2.897-0.56,1.534-1.56,1-3c-0.85-0.184-0.943,0.39-1,1
		c-0.805-3.065,6.757,2.938,11.998-1c-3.099-1.882-3.823-3.162-7.999-2c0.832-3.21,0.852-2.073-1-4c-2.259,0.56,1.212,1.56-1,3
		c0.658,1.342,2.137,1.862,4,2c-1.463,2.669-5.486-0.418-5-3c-2.861,0.262-3.988,4.893-6.999,2c-2.857-1.158,1.614-1.158,2,0
		c1.085-0.248,0.678-1.988,2-2c-1.812-0.854-2.757-2.575-5-3c2.576-2.09,3.664-5.669,3-10.999c1.615-0.282,1.721,0.945,3,1
		c0.368-1.701-0.78-1.887-2-2c5.936-10.057,14.294-39.362,28.997-33.996c1.765,1.626,1.256-0.816,3-1
		c19.554-2.061,13.796,12.374,12.999,26.997C-13.116,54.016-11.004,61.618-14.53,68.278z M-36.527,61.279
		c-12.826-1.805-11.381-22.755,3-24.997c-17.449,0.205-17.491,24.392-5.999,27.997c5.994,1.88,13.834-2.604,17.998-5
		c3.777-4.986,4.413-26.145-9.999-21.997C-12.025,40.757-22.184,63.297-36.527,61.279z M-25.529,41.281
		c-18.962-15.747-22.968,26.764-2,16.998c5.896-2.746,5.195-10.245,3-15.998C-24.584,43.333-25.811,43.068-25.529,41.281z"/>
	<path fill-rule="evenodd" clip-rule="evenodd" fill="#FFFFFF" d="M46.462,52.28c0.261-2.25,5.976,4.394,1,3
		c2.447,2.62-0.229,4.16,3,5.999c-0.437,1.484-1.28-0.394-3,0c0.869,1.464,1.497,3.169,3.999,3c0.396,1.94-4.554,1.46-2.999-1
		c-0.5,1.282-3.75,4.76-2,5c-0.247,1.086-1.988,0.678-2,2c-3.065-0.982,1.149-2.667,1-4c-3.235-1.235-0.764,3.235-3.999,2
		c0-1,0-2,0-3c-0.998,1.928-5.157,2.79-3,0c-4.529,2.3-4.407,3.653-6.999,4c-0.658,2.995-2.138-0.956-4,0
		c0.014-1.987,2.729-1.271,2-4c-3.803-1.47-0.196,4.47-3.999,3c0.517-3.766,1.264-4.554-2-6c-2.35,0.013,0.365,2.728,2,2
		c-0.112,2.554-3.349,1.984-5.999,2c6.818,1.135,0.504,3.204,7.998,3c0.424,2.09-0.685,2.648-0.999,4c-1.258-0.247-1.009-1.988,0-2
		c-0.017-2.983-7.41,1.41-6-3c-3.263-0.264-2.889,3.11-4.999,3.999c-2.708-0.903,2.286-2.236,2-3.999c-0.19-0.81-1.003-0.997-1-2
		c-0.033,4.287-2.475,1.549-3,5.999c-1.498-1.501-3.007-2.991-4.999-3.999c1.572-3.656,1.494,2.323,3.999,1
		c-1.246-3.735-3.148-3.836-6.999-3c-1.335-7.57-3.899-9.671-5.999-14.998c0.977-1.023,1.977-2.023,3-3
		c-5.12-8.308,0.206-21.862-1-27.997c1.841,1.857,3.508-1.567,4.999-3c1.78,0.733,0.145,1.818,0,3c2.08-0.565,3.231-2.856,5-1
		c0.184-0.851-0.391-0.943-1-1c14.538-6.96,24.488,2.142,29.996,15.998c0.377,0.949-0.894,2.207-1,2
		C41.431,40.118,49.178,47.16,46.462,52.28z"/>
	<path fill-rule="evenodd" clip-rule="evenodd" fill="#FFFFFF" d="M-117.517,28.283c-0.693,0.807-1.556,2.739,0,3
		c-0.248,1.086-1.988,0.678-2,2c-1.454-0.443,0.102-0.878,0-2c-1.688,1.359-5.245-14.997,0-13.998c-2.077,2.371,0.867,5.783,1,8.999
		C-121.357,23.311-120.439,28.786-117.517,28.283z"/>
	<path fill-rule="evenodd" clip-rule="evenodd" fill="#FFFFFF" d="M122.453,18.284c0.832,5.498-2.503,6.829-1.999,11.999
		c-0.805-0.529-1.624-1.043-3-1c2.683,2.996,1.485,5.328,1,9.999c-1.862,0.956-3.342-2.995-4,0c-1.98-0.775-0.539-6.444,2-6
		c0.091,2.729-1.665,2.013,0,4c3.824-3.629-1.786-8.544,1-11.999c1.665-2.35-0.091,0.365,0,2
		C124.048,26.604,114.019,18.755,122.453,18.284z"/>
	<path fill-rule="evenodd" clip-rule="evenodd" fill="#FFFFFF" d="M77.458,31.283c1.135,0.19,0.556,1.003,0,1
		c2.485,1.514,3.546,4.453,3,8.999c-5.55,1.874,1.194,0.804-4,5c0.585-4.146-8.815,2.878-12.998-5.999
		c2.525,1.474,4.467,3.532,7.999,4c3.541,0.541,2.458-3.541,5.999-3C78.698,35.718,76.51,34.485,77.458,31.283z"/>
	<path fill-rule="evenodd" clip-rule="evenodd" fill="#FFFFFF" d="M-119.517,36.282c0.309,2.357,3.473,1.86,3,4.999
		c-0.934,0.733-1.515,1.818-2,3c-1.94,0.396-1.461-4.554,1-3c-2.925-0.089-3.512-1.505-3-6.999c2.503-0.169,3.13,1.536,4,3
		C-117.584,40.686-116.829,34.5-119.517,36.282z"/>
	<path fill-rule="evenodd" clip-rule="evenodd" d="M-31.528,37.282c14.412-4.148,13.776,17.011,9.999,21.997
		c-4.164,2.395-12.004,6.879-17.998,5c-11.492-3.605-11.45-27.792,5.999-27.997c-14.38,2.242-15.825,23.192-3,24.997
		C-22.184,63.297-12.025,40.757-31.528,37.282z"/>
	<path fill-rule="evenodd" clip-rule="evenodd" d="M-24.529,42.281c2.195,5.753,2.896,13.252-3,15.998
		c-20.969,9.766-16.963-32.745,2-16.998C-25.811,43.068-24.584,43.333-24.529,42.281z M-27.528,42.281c-0.535,4.977-3.73-1.4-7,0
		c0.255,4.189-3.325,0.658-3,7.999c8.25,1.155,8.751-3.632,12.999-3C-24.055,44.14-25.776,43.195-27.528,42.281z"/>
	<path fill-rule="evenodd" clip-rule="evenodd" fill="#FFFFFF" d="M-103.519,41.281c0.184-0.85-0.39-0.943-1-1
		c5.21-3.183-3.46,4.933,3,3c-0.354,1.313-1.761,1.573-2,3c-1.72-0.309,1.299-3.472-3-3
		C-105.786,42.348-104.701,41.767-103.519,41.281z"/>
	<path fill-rule="evenodd" clip-rule="evenodd" fill="#FFFFFF" d="M-116.518,52.28c2.9-4.56,10.699,0.585,10.999,4.999
		c-2.853-2.146-5.234-4.765-8.999-5.999c-0.873,3.205,1.539,3.127,3,4C-113.43,58.396-115.096,52.953-116.518,52.28z"/>
	<path fill-rule="evenodd" clip-rule="evenodd" fill="#FFFFFF" d="M110.455,52.28c1.326,5.345-8.941,7.709-11.999,11.999
		c-0.635-3.661,8.442-6.204,10.999-9.999c-8.197-0.965-11.113,8.502-16.998,8.999c-0.127,1.793,1.225,2.109,1,4
		c-2.6,0.4-3.016,2.983-5.999,3c0.027-0.972,1.224-0.776,2-1c0.715-2.715-4.715,0.715-4-2c-1.141,0.888,0.618,2.792-3.999,2
		c-0.422,3.741,2.994,3.076,3.999,1c2.051,1.157-2.603,3.984-4.999,4c-1.895-5.489-3.839,2.549-9.999,1
		C83.144,66.047,97.335,55.681,110.455,52.28z"/>
	<path fill-rule="evenodd" clip-rule="evenodd" fill="#FFFFFF" d="M-101.519,62.279c0.81-0.19,0.997-1.003,2-1
		c-0.847-1.486-3.219-1.447-5-2c1.643-4.607,3.344,0.851,7,0c-1.301,1.332-0.615,3.018,1,4c-0.56,2.896-1.56-1.534-3-1
		c0.586,2.081,2.101,3.231,3,5c1.85-0.15,0.614-3.386,2-4c4.818,5.408-4.048,4.626-7.999,2c0.977-4.928-3.756-2.591-4-4
		C-108.464,60.07-103.462,60.595-101.519,62.279z"/>
	<path fill-rule="evenodd" clip-rule="evenodd" fill="#FFFFFF" d="M-90.521,65.278c2.54,1.813-1.139,5.824,0,6.999
		C-93.15,75.096-91.678,67.23-90.521,65.278z"/>
	<path fill-rule="evenodd" clip-rule="evenodd" fill="#FFFFFF" d="M5.467,70.278c-0.657-2.995-2.137,0.956-3.999,0
		c0.531-3.419,4.817-1.531,6.999-1c-0.271,2.062-4.428,0.239-4,3c1.401,1.2,0.087,0.39-0.999,0
		C3.911,71.388,4.346,70.489,5.467,70.278z"/>
	<path fill-rule="evenodd" clip-rule="evenodd" fill="#FFFFFF" d="M-85.521,71.278c-0.934,0.733-1.515,1.818-2,3
		c-2.168,0.168-0.453-3.546-1-5c4.024-0.691,2.455,4.211,6,4c3.103,1.283-2.836,1.283-3,0
		C-85.521,72.611-85.521,71.944-85.521,71.278z"/>
	<path fill-rule="evenodd" clip-rule="evenodd" fill="#FFFFFF" d="M-12.53,89.275c-18.034-1.468-34.307-4.591-55.993-9.999
		c-2.64-1.448,15.191,0.782,21.997,2C-34.019,83.515-19.869,85.883-12.53,89.275z"/>
	<path fill-rule="evenodd" clip-rule="evenodd" fill="#FFFFFF" d="M72.459,35.282c-3.45,1.896-6.029-1.375-7.999,2
		C55.063,30.787,73.127,22.908,72.459,35.282z"/>
	<path fill-rule="evenodd" clip-rule="evenodd" fill="#FFFFFF" d="M-24.529,47.281c-4.248-0.632-4.749,4.154-12.999,3
		c-0.326-7.341,3.254-3.81,3-7.999c3.27-1.4,6.464,4.977,7,0C-25.776,43.195-24.055,44.14-24.529,47.281z"/>
</g>
</svg>
