<?xml version="1.0" encoding="utf-8"?>
<!-- Generator: Adobe Illustrator 15.1.0, SVG Export Plug-In . SVG Version: 6.00 Build 0)  -->
<!DOCTYPE svg PUBLIC "-//W3C//DTD SVG 1.1//EN" "http://www.w3.org/Graphics/SVG/1.1/DTD/svg11.dtd">
<svg version="1.1" id="Layer_1" xmlns="http://www.w3.org/2000/svg" xmlns:xlink="http://www.w3.org/1999/xlink" x="0px" y="0px"
	 width="595.28px" height="841.89px" viewBox="0 0 595.28 841.89" enable-background="new 0 0 595.28 841.89" xml:space="preserve">
<path fill-rule="evenodd" clip-rule="evenodd" fill="#231F20" d="M-36-107.841c-0.115,0.003,0.325-1.014,1-1
	c12.738,0.264,21.43,10.788,32.996,10.999c13.829,0.251,21.971-13.48,44.995-9.999c39.531,5.978,60.61,60.289,79.99,88.989
	c3.597,5.328,17.427,18.429,16.997,25.997c-0.504,8.894-16.188,15.992-20.997,20.997C103.685,44.064,92.667,63.78,73.986,81.135
	c-24.741,22.987-72.824,46.152-121.985,25.997c-38.595-15.823-58.145-54.976-77.99-86.989c-4.033-6.505-13.9-13.173-13.998-19.997
	c-0.084-5.838,13.253-22.691,17.998-29.997c16.292-25.087,38.584-63.989,65.992-74.991C-50.583-107.014-43.029-107.672-36-107.841z
	 M92.983,49.139c9.034-7.743,15.518-21.751,23.997-29.996c4.572-4.444,13.616-7.298,13.999-13.998
	c0.294-5.158-12.343-20.031-14.998-23.997c-4.685-6.995-12.152-17.836-15.998-23.997c-12.901-20.664-34.822-62.613-71.991-57.993
	c-9.179,1.141-17.856,9.819-27.997,10.999c-11.017,1.282-18.723-9.355-26.996-10.999c-8.848-1.758-19.375,0.337-23.997,2
	c-36.4,13.09-50.725,58.862-73.991,86.989c-2.104,3.895-6.34,5.659-6,11.999c5.96,10.038,13.114,18.882,18.998,28.996
	c20.486,43.657,56.164,82.501,116.985,77.99C47.163,104.005,71.449,75.452,92.983,49.139z"/>
<path fill-rule="evenodd" clip-rule="evenodd" fill="#E73232" d="M92.983,49.139c1.277-3.056,3.67-4.996,4-8.998
	C66.822,44.209,36.057,57.732,2.995,60.138c-48.267,3.514-77.894-26.146-112.986-37.995c-2.86,0.14-1.829,4.171-2,6.999
	c-5.884-10.114-13.038-18.958-18.998-28.996c1.534,2.294,4.284,4.3,7.999,4.999c10.997,2.069,47.934-0.173,60.993-4
	c6.149-1.802,8.034-4.76,10.999-6.999c-0.95,10.834,25.221,19.416,42.995,19.998C10.968,14.765,43.739,6.888,41.99-3.854
	c16.867,13.875,58.857,13.025,85.989,9.999c-0.733-7.004-5.621-11.521-10.999-14.998c-10.423-6.741-28.851-12.011-45.994-20.998
	c-16.93-8.875-33.096-20.881-50.993-22.997c-8.353-0.988-18.651,1.527-27.997,1c-6.495-0.367-12.356-2.377-17.998-2
	c-20.258,1.355-42.038,18.313-63.992,19.998c-4.008,0.308-8.15-0.761-10.999,0c-8.99,2.403-16.19,15.928-23.997,21.998
	c23.266-28.127,37.591-73.899,73.991-86.989c4.623-1.663,15.149-3.758,23.997-2c8.273,1.644,15.979,12.281,26.996,10.999
	c10.141-1.18,18.818-9.858,27.997-10.999c37.169-4.621,59.09,37.329,71.991,57.993c3.846,6.161,11.313,17.002,15.998,23.997
	c2.655,3.966,15.292,18.839,14.998,23.997c-0.383,6.7-9.427,9.554-13.999,13.998C108.501,27.388,102.018,41.396,92.983,49.139z"/>
<path fill-rule="evenodd" clip-rule="evenodd" fill="#651E1F" d="M92.983,49.139c-21.534,26.312-45.82,54.866-87.988,57.993
	c-60.822,4.511-96.499-34.333-116.985-77.99c0.171-2.828-0.86-6.859,2-6.999C-74.899,33.992-45.272,63.652,2.995,60.138
	c33.062-2.406,63.827-15.929,93.988-19.997C96.653,44.143,94.261,46.083,92.983,49.139z"/>
<path fill-rule="evenodd" clip-rule="evenodd" fill="#651E1F" d="M-130.988,0.146c-0.34-6.34,3.895-8.104,6-11.999
	c7.807-6.07,15.007-19.595,23.997-21.998c2.849-0.761,6.991,0.308,10.999,0c21.955-1.684,43.734-18.643,63.992-19.998
	c5.642-0.377,11.502,1.633,17.998,2c9.345,0.527,19.644-1.988,27.997-1c17.897,2.116,34.063,14.122,50.993,22.997
	c17.144,8.987,35.571,14.257,45.994,20.998c5.378,3.478,10.266,7.994,10.999,14.998c-27.132,3.026-69.122,3.877-85.989-9.999
	c-14.433-18.881-76.5-20.303-92.988-2c-2.964,2.239-4.849,5.197-10.999,6.999c-13.059,3.827-49.996,6.069-60.993,4
	C-126.704,4.446-129.454,2.44-130.988,0.146z"/>
</svg>
