<?xml version="1.0" encoding="utf-8"?>
<!-- Generator: Adobe Illustrator 15.1.0, SVG Export Plug-In . SVG Version: 6.00 Build 0)  -->
<!DOCTYPE svg PUBLIC "-//W3C//DTD SVG 1.1//EN" "http://www.w3.org/Graphics/SVG/1.1/DTD/svg11.dtd">
<svg version="1.1" id="hills_xA0_Image_1_" xmlns="http://www.w3.org/2000/svg" xmlns:xlink="http://www.w3.org/1999/xlink" x="0px"
	 y="0px" width="800px" height="600px" viewBox="0 0 800 600" enable-background="new 0 0 800 600" xml:space="preserve">
<path d="M0,0c4.684,0.779,4.811,5.194,6,8c2.977,7.022,4.294,14.968,7,23c2.417,7.173,5.458,14.739,8,22
	c4.504,12.862,11.301,26.237,16,37c0.804,1.841,1.082,4.524,2,6c0.264,0.424,1.666,0.555,2,1c0.68,0.907,0.329,2.207,1,3
	c3.778,4.466,8.093,7.523,11,12c2.561,3.943,5.017,9.81,7,13c1.819,2.927,4.097,4.334,6,7c5.366,7.519,8.789,16.94,17,17
	c5.608,0.041,6.532-2.699,10-6c4.254-4.049,2.023-5.998,9-7c16.08-2.31,13.547,12.52,23,17c3.179,1.476,7.159-4.813,12-5
	c6.237,3.802,13.065,6.087,20,5c5.169-0.81,9.546-5.287,15-10c5.022-4.341,10.795-8.049,14-12c5.825-7.182,6.983-16.61,12-21
	c8.774-2.021,8.802-6.131,16-6c3.237,0.059,11.945,4.067,14,6c1.961,1.844,2.705,5.562,4,8c4.064,7.65,8.208,18.608,16,20
	c6.968,1.244,10.626-2.807,18-5c4.446,0.554,6.893,3.107,10,5c5.549-0.451,6.022-5.978,12-6c3.25,2.076,5.814,3.055,9,4
	c7.031,2.086,10.343,6.004,16,8c2.376-0.671,4.034-3.101,5-4c2.048-1.906,4.327-2.519,6-4c5.306-4.698,13.083-11.223,17-16
	c3.403-4.15,4.852-9.444,9-13c2.939-2.52,6.633-3.54,10-5c4.405-1.91,5.491-4.452,8-8c1.554-2.197,2.783-4.086,4-6
	c3.712-5.838,7.504-13.351,11-17c0.803-0.838,1.186-2.149,2-3c5.011-5.23,5.766-13.457,12-17c4.363-1.986,8.924-0.626,13-2
	c1.581-0.533,3.567-3.2,5-4c5.043-2.814,9.195-2.199,15-4c2.632-0.816,3.943-2.777,7-3c6.76,5.296,13.753,9.229,19,18
	c3.794,6.341,6.312,14.665,10,22c1.646,3.273,4.34,6.697,6,10c2.076,4.131,2.859,8.332,5,11c2.985,3.72,9.923,6.604,13,9
	c0.804,0.626,1.112,2.475,2,3c7.676,4.546,14.226,0.491,22-1c4.344,1.322,5.201,6.132,9,8c3.367-0.633,5.128-2.872,10-2
	c3.121,2.864,7.579,4.294,12,6c4.555,1.757,9.961,4.557,14,4c8.451-1.166,8.042-10.847,16-13c5.25,2.099,8.936,9.388,15,10
	c4.509,0.455,6.658-2.873,12-3c6.425,4.803,10.505,16.918,21,18c6.111,0.63,10.064-1.778,16-5c4.913,1.42,6.883,5.784,12,7
	c2.933-2.301,6.459-5.677,8-8c4.693-7.075,20.071-4.816,27-1c7.164-5.241,12.527-9.969,23-8c8.005,1.505,10.823,10.57,18,11
	c4.849-3.462,9.192-6.884,14-11c4.28-3.664,7.947-8.578,13-12c3.119-2.112,7.849-2.937,11-6c4.223-4.105,7.558-12.697,12-19
	c5.658-8.027,11.698-16.383,23-15c0,72.667,0,145.333,0,218c-266.674,0-533.321,0-800,0C0,192.666,0,96.334,0,0z"/>
</svg>
